{
  "accessors": [
    {
      "bufferView": 2,
      "componentType": 5126,
      "count": 9421,
      "max": [
        0.97348999977111816,
        0.73707002401351929,
        1.0083099603652954
      ],
      "min": [
        -0.97348999977111816,
        -1.0804699659347534,
        -1.0009700059890747
      ],
      "type": "VEC3"
    },
    {
      "bufferView": 2,
      "byteOffset": 113052,
      "componentType": 5126,
      "count": 9421,
      "max": [
        0.99999666213989258,
        0.99996322393417358,
        0.99999773502349854
      ],
      "min": [
        -0.99999666213989258,
        -1,
        -1
      ],
      "type": "VEC3"
    },
    {
      "bufferView": 3,
      "componentType": 5126,
      "count": 9421,
      "max": [
        1,
        1,
        1,
        1
      ],
      "min": [
        -1,
        -1,
        -1,
        -1
      ],
      "type": "VEC4"
    },
    {
      "bufferView": 1,
      "componentType": 5126,
      "count": 9421,
      "max": [
        2.7704501152038574,
        2.11503005027771
      ],
      "min": [
        -1.4995599985122681,
        -1.5397299528121948
      ],
      "type": "VEC2"
    },
    {
      "bufferView": 0,
      "componentType": 5125,
      "count": 16320,
      "max": [
        9420
      ],
      "min": [
        0
      ],
      "type": "SCALAR"
    }
  ],
  "asset": {
    "extras": {
      "author": "woodge (https://sketchfab.com/woodge)",
      "license": "CC-BY-4.0 (http://creativecommons.org/licenses/by/4.0/)",
      "source": "https://sketchfab.com/3d-models/arm-chair-abdd3e6c94604f9781176a84ec2ec70b",
      "title": "Arm chair"
    },
    "generator": "Sketchfab-6.22.0",
    "version": "2.0"
  },
  "bufferViews": [
    {
      "buffer": 0,
      "byteLength": 65280,
      "byteOffset": 0,
      "name": "floatBufferViews",
      "target": 34963
    },
    {
      "buffer": 0,
      "byteLength": 75368,
      "byteOffset": 65280,
      "byteStride": 8,
      "name": "floatBufferViews",
      "target": 34962
    },
    {
      "buffer": 0,
      "byteLength": 226104,
      "byteOffset": 140648,
      "byteStride": 12,
      "name": "floatBufferViews",
      "target": 34962
    },
    {
      "buffer": 0,
      "byteLength": 150736,
      "byteOffset": 366752,
      "byteStride": 16,
      "name": "floatBufferViews",
      "target": 34962
    }
  ],
  "buffers": [
    {
      "byteLength": 517488,
      "uri": "scene.bin"
    }
  ],
  "materials": [
    {
      "doubleSided": true,
      "emissiveFactor": [
        0,
        0,
        0
      ],
      "name": "Scene_-_Root",
      "pbrMetallicRoughness": {
        "baseColorFactor": [
          0.5,
          0.5,
          0.5,
          1
        ],
        "metallicFactor": 0,
        "roughnessFactor": 0.59999999999999998
      }
    }
  ],
  "meshes": [
    {
      "name": "arm chair_0",
      "primitives": [
        {
          "attributes": {
            "NORMAL": 1,
            "POSITION": 0,
            "TANGENT": 2,
            "TEXCOORD_0": 3
          },
          "indices": 4,
          "material": 0,
          "mode": 4
        }
      ]
    }
  ],
  "nodes": [
    {
      "children": [
        1
      ],
      "name": "RootNode (gltf orientation matrix)",
      "rotation": [
        -0.70710678118654746,
        -0,
        -0,
        0.70710678118654757
      ]
    },
    {
      "children": [
        2
      ],
      "name": "RootNode (model correction matrix)"
    },
    {
      "children": [
        3
      ],
      "name": "Root"
    },
    {
      "children": [
        4
      ],
      "matrix": [
        37.891079999999995,
        0,
        0,
        0,
        0,
        37.891079999999995,
        0,
        0,
        0,
        0,
        37.891079999999995,
        0,
        -11.276119999999999,
        20.809100000000001,
        4.7103700000000002,
        1
      ],
      "name": "arm chair"
    },
    {
      "mesh": 0,
      "name": "arm chair_0"
    }
  ],
  "scene": 0,
  "scenes": [
    {
      "name": "OSG_Scene",
      "nodes": [
        0
      ]
    }
  ]
}

