{
  "accessors": [
    {
      "bufferView": 1,
      "componentType": 5126,
      "count": 25034,
      "max": [
        181.05419921875,
        101.01113891601563,
        30.0
      ],
      "min": [
        -181.05419921875,
        -30.0,
        -30.0
      ],
      "type": "VEC3"
    },
    {
      "bufferView": 1,
      "byteOffset": 300408,
      "componentType": 5126,
      "count": 25034,
      "max": [
        1.0,
        1.0,
        1.0
      ],
      "min": [
        -1.0,
        -1.0,
        -1.0
      ],
      "type": "VEC3"
    },
    {
      "bufferView": 1,
      "byteOffset": 600816,
      "componentType": 5126,
      "count": 25034,
      "max": [
        0.8235294222831726,
        0.7215686440467834,
        0.32156863808631897
      ],
      "min": [
        0.8235294222831726,
        0.7215686440467834,
        0.32156863808631897
      ],
      "type": "VEC3"
    },
    {
      "bufferView": 0,
      "componentType": 5125,
      "count": 112791,
      "type": "SCALAR"
    },
    {
      "bufferView": 1,
      "byteOffset": 901224,
      "componentType": 5126,
      "count": 88,
      "max": [
        22.28402328491211,
        39.0,
        1.0
      ],
      "min": [
        -22.28402328491211,
        27.79096221923828,
        -1.0
      ],
      "type": "VEC3"
    },
    {
      "bufferView": 1,
      "byteOffset": 902280,
      "componentType": 5126,
      "count": 88,
      "max": [
        1.0,
        0.7896806597709656,
        1.0
      ],
      "min": [
        -1.0,
        -1.0,
        -1.0
      ],
      "type": "VEC3"
    },
    {
      "bufferView": 1,
      "byteOffset": 903336,
      "componentType": 5126,
      "count": 88,
      "max": [
        0.8235294222831726,
        0.7215686440467834,
        0.32156863808631897
      ],
      "min": [
        0.8235294222831726,
        0.7215686440467834,
        0.32156863808631897
      ],
      "type": "VEC3"
    },
    {
      "bufferView": 0,
      "byteOffset": 451164,
      "componentType": 5125,
      "count": 192,
      "type": "SCALAR"
    }
  ],
  "asset": {
    "extras": {
      "author": "mr.sharmajinx (https://sketchfab.com/mr.sharmajinx)",
      "license": "CC-BY-4.0 (http://creativecommons.org/licenses/by/4.0/)",
      "source": "https://sketchfab.com/3d-models/golden-snitch-548b1d0e9fe542d486d8d9b782214e51",
      "title": "GOLDEN SNITCH"
    },
    "generator": "Sketchfab-11.71.0",
    "version": "2.0"
  },
  "bufferViews": [
    {
      "buffer": 0,
      "byteLength": 451932,
      "name": "floatBufferViews",
      "target": 34963
    },
    {
      "buffer": 0,
      "byteLength": 904392,
      "byteOffset": 451932,
      "byteStride": 12,
      "name": "floatBufferViews",
      "target": 34962
    }
  ],
  "buffers": [
    {
      "byteLength": 1356324,
      "uri": "scene.bin"
    }
  ],
  "materials": [
    {
      "doubleSided": true,
      "name": "Scene_-_Root",
      "pbrMetallicRoughness": {
        "metallicFactor": 0.0,
        "roughnessFactor": 0.6
      }
    }
  ],
  "meshes": [
    {
      "name": "Object_0",
      "primitives": [
        {
          "attributes": {
            "COLOR_0": 2,
            "NORMAL": 1,
            "POSITION": 0
          },
          "indices": 3,
          "material": 0,
          "mode": 4
        }
      ]
    },
    {
      "name": "Object_1",
      "primitives": [
        {
          "attributes": {
            "COLOR_0": 6,
            "NORMAL": 5,
            "POSITION": 4
          },
          "indices": 7,
          "material": 0,
          "mode": 4
        }
      ]
    }
  ],
  "nodes": [
    {
      "children": [
        1
      ],
      "matrix": [
        1.0,
        0.0,
        0.0,
        0.0,
        0.0,
        2.220446049250313e-16,
        -1.0,
        0.0,
        0.0,
        1.0,
        2.220446049250313e-16,
        0.0,
        0.0,
        0.0,
        0.0,
        1.0
      ],
      "name": "Sketchfab_model"
    },
    {
      "children": [
        2,
        3
      ],
      "name": "Geode"
    },
    {
      "mesh": 0,
      "name": "Object_2"
    },
    {
      "mesh": 1,
      "name": "Object_3"
    }
  ],
  "scene": 0,
  "scenes": [
    {
      "name": "Sketchfab_Scene",
      "nodes": [
        0
      ]
    }
  ]
}
